<?xml version="1.0" standalone="no"?>
<!DOCTYPE svg PUBLIC "-//W3C//DTD SVG 20010904//EN"
 "http://www.w3.org/TR/2001/REC-SVG-20010904/DTD/svg10.dtd">
<svg version="1.0" xmlns="http://www.w3.org/2000/svg"
 width="1024.000000pt" height="1024.000000pt" viewBox="0 0 1024.000000 1024.000000"
 preserveAspectRatio="xMidYMid meet">
<metadata>
Created by potrace 1.11, written by Peter Selinger 2001-2013
</metadata>
<g transform="translate(0.000000,1024.000000) scale(0.100000,-0.100000)"
fill="#000000" stroke="none">
<path d="M0 5120 l0 -5120 5120 0 5120 0 0 5120 0 5120 -5120 0 -5120 0 0
-5120z m5334 2356 c70 -20 185 -76 240 -118 23 -17 179 -169 349 -337 l307
-306 0 171 c0 122 4 185 15 221 49 165 241 252 397 181 67 -31 123 -86 152
-147 20 -45 21 -61 24 -531 l3 -485 408 -410 c385 -387 410 -413 431 -470 74
-200 -78 -406 -290 -393 -36 2 -83 12 -105 22 -28 13 -347 326 -1040 1017
-704 702 -1011 1003 -1037 1014 -21 8 -51 15 -68 15 -17 0 -47 -7 -68 -15 -26
-11 -333 -312 -1037 -1014 -693 -691 -1012 -1004 -1040 -1017 -22 -10 -69 -20
-105 -22 -212 -13 -363 193 -290 393 22 58 56 93 1019 1058 548 549 1021 1018
1052 1043 71 55 180 110 256 128 32 8 67 17 78 20 44 11 291 -2 349 -18z
m-133 -1145 c58 -38 1732 -1717 1753 -1758 14 -28 16 -107 16 -700 0 -743 0
-743 -67 -862 -44 -80 -139 -174 -212 -210 -119 -61 -122 -61 -628 -61 l-463
0 0 650 0 650 -480 0 -480 0 0 -650 0 -650 -463 0 c-506 0 -509 0 -628 61 -73
36 -168 130 -212 210 -67 119 -67 119 -67 862 0 593 2 672 16 700 21 41 1695
1720 1753 1758 29 18 58 29 81 29 23 0 52 -11 81 -29z"/>
</g>
</svg>
